<svg width="130" height="34" viewBox="0 0 130 34" fill="none" xmlns="http://www.w3.org/2000/svg">
<path d="M114.34 8.1582C112.977 8.1582 111.927 9.06364 111.927 10.45C111.927 11.8364 112.919 12.7667 114.34 12.7667C115.761 12.7667 116.753 11.8364 116.753 10.45C116.753 9.06364 115.702 8.1582 114.34 8.1582Z" fill="black"/>
<path d="M116.459 13.8145H112.218V26.2106H116.459V13.8145Z" fill="black"/>
<path d="M6.54587 22.3382C7.62367 22.3382 8.38513 21.7511 8.38513 20.7463C8.38513 19.7415 7.65078 19.1048 6.54587 19.1048H4.43772V22.3382H6.54587ZM6.34929 15.8962C7.37964 15.8962 8.11398 15.3069 8.11398 14.3292C8.11398 13.3741 7.37964 12.8096 6.34929 12.8096H4.43772V15.8962H6.34929ZM13.0895 21.4327C13.0895 24.201 10.7124 26.2105 6.96162 26.2105H0V8.93945H6.61817C10.247 8.93945 12.624 10.8497 12.624 13.6179C12.624 15.2843 11.7179 16.63 10.0256 17.3413V17.4158C12.0365 18.1022 13.0895 19.5225 13.0895 21.4327Z" fill="black"/>
<path d="M62.2992 18.4677C62.2495 17.0226 61.3931 16.2142 60.1911 16.2142C59.0635 16.2142 58.2795 16.9007 58.1078 18.4677H62.2992ZM53.9141 19.8902C53.9141 16.0923 56.316 13.4482 60.2385 13.4482C64.6988 13.4482 66.9312 16.7787 66.4906 20.9198H58.0581C58.1304 22.5862 58.9167 23.5661 60.2159 23.5661C61.418 23.5661 62.0778 22.9294 62.3738 21.8749H66.4183C65.9032 24.5213 63.8696 26.5782 60.2408 26.5782C56.2188 26.576 53.9141 23.9071 53.9141 19.8902Z" fill="black"/>
<path d="M80.2975 8.93945H86.8908V26.2105H82.4305L82.5277 17.5626C82.5525 16.2643 82.6497 14.5008 82.6994 12.9812H82.6497C82.2814 14.3766 81.8656 16.0678 81.4476 17.5377L78.9463 26.2083H75.3175L72.8162 17.4881C72.423 16.043 72.0073 14.3269 71.639 12.9812H71.5893C71.639 14.476 71.7361 16.2643 71.761 17.5874L71.8581 26.2105H67.4023V8.93945H74.0951L77.159 20.2812H77.2087L80.2975 8.93945Z" fill="black"/>
<path d="M100.561 21.9969H104.237C104.287 23.1733 104.924 23.8348 105.977 23.8348C106.957 23.8348 107.497 23.3697 107.497 22.7578C107.497 22.121 107.082 21.7778 106.026 21.5566L104.605 21.2879C102.203 20.8227 100.879 19.696 100.879 17.5397C100.879 15.2614 102.619 13.4482 105.954 13.4482C108.846 13.4482 111.029 14.8685 111.226 17.6119H107.524C107.427 16.7539 106.937 16.1171 105.882 16.1171C104.976 16.1171 104.558 16.5574 104.558 17.0971C104.558 17.6842 104.973 17.9551 105.954 18.1267L107.35 18.3706C109.655 18.786 111.47 19.9376 111.47 22.3626C111.47 24.8125 109.705 26.6008 105.979 26.576C102.816 26.5511 100.683 25.1309 100.561 21.9969Z" fill="black"/>
<path d="M117.08 20.0121C117.08 16.0201 119.751 13.4482 123.601 13.4482C127.277 13.4482 129.851 15.6768 130 19.0096H125.809C125.587 17.3681 124.756 16.7313 123.579 16.7313C122.304 16.7313 121.348 17.7609 121.348 20.0144C121.348 22.243 122.329 23.2726 123.579 23.2726C124.781 23.2726 125.614 22.611 125.809 20.9447H130C129.853 24.2277 127.327 26.5782 123.601 26.5782C119.703 26.576 117.08 23.9545 117.08 20.0121Z" fill="black"/>
<path d="M13.7383 21.2525V13.8125H17.8077V21.0357C17.8077 22.5801 18.4833 23.1311 19.6221 23.1311C20.7248 23.1311 21.4343 22.5801 21.4343 21.0357V13.8125H25.4675V21.2525C25.4675 25.0007 22.8917 26.5812 19.6198 26.5812C16.3345 26.5812 13.7383 24.9984 13.7383 21.2525Z" fill="black"/>
<path d="M13.7383 21.2525V13.8125H17.8077V21.0357C17.8077 22.5801 18.4833 23.1311 19.6221 23.1311C20.7248 23.1311 21.4343 22.5801 21.4343 21.0357V13.8125H25.4675V21.2525C25.4675 25.0007 22.8917 26.5812 19.6198 26.5812C16.3345 26.5812 13.7383 24.9984 13.7383 21.2525Z" stroke="black" stroke-width="0.55" stroke-miterlimit="10"/>
<path d="M88.2529 21.2525V13.8125H92.3224V21.0357C92.3224 22.5801 92.998 23.1311 94.1345 23.1311C95.2372 23.1311 95.9466 22.5801 95.9466 21.0357V13.8125H99.9799V21.2525C99.9799 25.0007 97.404 26.5812 94.1322 26.5812C90.8469 26.5812 88.2529 24.9984 88.2529 21.2525Z" fill="black"/>
<path d="M46.3365 22.855C44.8859 22.855 43.7041 21.9428 43.7041 20.0326C43.7041 18.1449 44.8859 17.2982 46.3365 17.2982C47.812 17.2982 48.9688 18.1675 48.9688 20.0326C48.9688 21.9225 47.7871 22.855 46.3365 22.855ZM31.9681 29.1908C30.5175 29.1908 29.3358 28.2786 29.3358 26.3684C29.3358 24.4807 30.5175 23.634 31.9681 23.634C33.4436 23.634 34.6005 24.5033 34.6005 26.3684C34.6005 28.2583 33.4187 29.1908 31.9681 29.1908ZM34.3949 6.94321V11.7097V20.2132C33.6447 19.9761 32.829 19.8497 31.9681 19.8497C28.0817 19.8497 25.0811 22.4305 25.0811 26.3887C25.0811 30.3469 27.91 33.0022 31.9681 33.0022C36.0262 33.0022 38.8574 30.3717 38.8574 26.3887C38.8574 26.3323 38.8574 26.2781 38.8552 26.2216L38.8574 26.2239V10.5175L48.7655 6.60903V11.1972V13.7871C48.0153 13.55 47.1996 13.4235 46.3387 13.4235C42.4523 13.4235 39.4494 16.0044 39.4494 19.9626C39.4494 23.9208 42.2784 26.5761 46.3387 26.5761C50.3969 26.5761 53.2258 23.9456 53.2258 19.9626C53.2258 19.9106 53.2258 19.8564 53.2235 19.8068H53.2258V13.7938V11.1972V5.41683V5.06911V0.047417V0L34.3949 6.94321Z" fill="black"/>
</svg>
