<?xml version="1.0" encoding="utf-8"?>
<!-- Generator: Adobe Illustrator 26.0.3, SVG Export Plug-In . SVG Version: 6.00 Build 0)  -->
<svg version="1.1" id="Ebene_1" xmlns="http://www.w3.org/2000/svg" xmlns:xlink="http://www.w3.org/1999/xlink" x="0px" y="0px"
	 viewBox="0 0 1696 1007" style="enable-background:new 0 0 1696 1007;" xml:space="preserve">
<path d="M1215,579h123l-61-274L1215,579z M1000,845l179-686h198l177,686h-157l-32-144h-248l62,41l-22,103H1000z M750,845V296H624
	V159h399v137H828l69,46v503H750z M327,440h24c56,0,85-37,85-77c0-41-29-76-85-76h-84l60,46V440z M182,845V159h174
	c141,0,227,74,227,176c0,62-25,117-96,152c82,31,119,91,119,164c0,115-87,194-235,194H182z M327,717h36c61,0,90-32,90-80
	s-29-84-90-84h-36V717z M0,1007h1696V0H1L0,1007z"/>
</svg>
