<svg width="626" height="158" viewBox="0 0 626 158" fill="none" xmlns="http://www.w3.org/2000/svg">
<path d="M31.7725 106.876C36.9252 106.876 40.5528 104.079 40.5528 99.3105C40.5528 94.5417 37.0436 91.495 31.7725 91.495H21.6893V106.876H31.7725ZM30.8397 76.2469C35.7554 76.2469 39.2646 73.4504 39.2646 68.7847C39.2646 64.119 35.7554 61.5727 30.8397 61.5727H21.6893V76.291L30.8397 76.2469ZM63.0142 102.563C63.0142 115.81 51.6428 125.274 33.7121 125.274H0.486328V43.1602H32.1278C49.4663 43.1602 60.8229 52.2561 60.8229 65.4142C60.8229 73.3327 56.4994 79.7351 48.415 83.0762V83.4147C58.0244 86.7263 63.0142 93.5262 63.0142 102.563Z" fill="black"/>
<path d="M66.166 101.709V66.385H85.607V100.664C85.607 108.023 88.8348 110.628 94.2688 110.628C99.7028 110.628 102.99 108.008 102.99 100.664V66.3408H122.238V101.665C122.238 119.474 109.919 126.98 94.2984 126.98C78.6775 126.98 66.166 119.474 66.166 101.665" fill="black"/>
<path d="M221.251 109.329C214.307 109.329 208.665 104.987 208.665 95.9063C208.665 86.8251 214.307 82.91 221.251 82.91C228.195 82.91 233.836 87.0312 233.836 95.9063C233.836 104.781 228.18 109.329 221.251 109.329ZM152.578 139.443C145.634 139.443 139.993 135.116 139.993 126.035C139.993 116.953 145.634 113.024 152.578 113.024C159.522 113.024 165.149 117.16 165.149 126.035C165.149 134.91 159.508 139.443 152.578 139.443ZM164.172 33.6773V96.76C160.421 95.5822 156.511 94.9865 152.578 94.9938C133.996 94.9938 119.648 107.269 119.648 126.094C119.648 144.918 133.167 157.532 152.578 157.532C171.989 157.532 185.493 145.021 185.493 126.094V125.299V50.6623L232.874 32.073V66.2195C229.122 65.0506 225.212 64.4647 221.28 64.4827C202.698 64.4827 188.351 76.7578 188.351 95.5825C188.351 114.407 201.884 127.021 221.28 127.021C240.677 127.021 254.21 114.51 254.21 95.5825C254.21 95.3323 254.21 95.0821 254.21 94.8319V0.634766L164.172 33.6773Z" fill="black"/>
<path d="M300.006 88.4026C299.755 81.5291 295.387 77.6729 289.286 77.6729C283.542 77.6729 279.559 80.9404 278.685 88.4026H300.006ZM257.349 95.173C257.349 77.0842 269.579 64.4854 289.538 64.4854C312.237 64.4854 323.593 80.3517 321.328 100.074H277.708C278.078 108.007 282.786 112.673 289.39 112.673C295.505 112.673 298.866 109.641 300.362 104.622H320.943C318.322 117.221 307.972 127.023 289.523 127.023C269.061 127.023 257.334 114.307 257.334 95.173" fill="black"/>
<path d="M390.08 43.1602H421.618V125.318H400.282L400.756 84.18C400.859 78.0131 401.333 69.6237 401.57 62.397H401.333C399.571 69.0349 397.587 77.1153 395.588 84.077L383.639 125.288H366.286L354.322 83.8121C352.457 76.9386 350.458 68.77 348.696 62.3675H348.459C348.696 69.4765 349.17 77.9836 349.288 84.2684L349.747 125.288H328.426V43.1602H360.423L375.081 97.1174H375.318L390.08 43.1602Z" fill="black"/>
<path d="M429.607 124.507H449.892C450.588 130.394 454.586 132.543 460.567 132.543C467.482 132.543 471.11 128.82 471.11 122.24V114.131H470.873C468.06 117.516 462.315 121.711 452.587 121.711C438.165 121.711 427.727 111.805 427.727 93.5104C427.727 75.2155 438.757 64.6036 452.587 64.6036C456.208 64.5024 459.8 65.2648 463.064 66.8268C466.328 68.3888 469.168 70.705 471.347 73.5818H471.583V66.3551H490.921V119.724C490.921 139.888 476.736 146.879 460.671 146.879C442.622 146.879 430.777 140.005 429.607 124.507ZM472.042 93.5251C472.042 84.1937 466.534 79.7782 459.975 79.7782C453.061 79.7782 447.671 84.1937 447.671 93.5251C447.671 102.503 453.061 107.39 459.975 107.39C466.534 107.375 472.042 102.489 472.042 93.5251Z" fill="black"/>
<path d="M498.786 66.3538H518.597V74.9788H518.834C520.315 71.9468 524.757 64.6024 534.07 64.6024C537.568 64.4976 541.012 65.4732 543.929 67.3947C546.846 69.3162 549.092 72.0892 550.357 75.332H550.58C551.986 72.3883 556.68 64.6024 567 64.6024C577.661 64.6024 586.115 71.1373 586.115 86.1647V125.315H565.963V89.7706C565.963 84.5309 563.846 81.3959 559.508 81.3959C558.46 81.2971 557.406 81.4832 556.456 81.9343C555.507 82.3854 554.699 83.0845 554.118 83.9569C552.943 85.9197 552.424 88.2027 552.638 90.4771V125.315H532.382V89.7706C532.382 84.5309 530.161 81.3959 525.823 81.3959C524.794 81.3284 523.765 81.5291 522.838 81.9783C521.911 82.4274 521.118 83.1095 520.537 83.9569C519.486 85.4287 519.056 87.3274 519.056 90.4771V125.315H498.771L498.786 66.3538Z" fill="black"/>
<path d="M616.865 66.3586H626V81.1652H616.865V103.419C616.865 106.908 618.153 108.085 621.307 108.085H626V125.32H616.865C602.68 125.32 596.802 118.329 596.802 105.171V81.1652H589.191V66.3586H597.631V56.2177L616.509 48.417H616.865V66.3586Z" fill="black"/>
</svg>
