<?xml version="1.0" encoding="utf-8"?>
<!-- Generator: Adobe Illustrator 26.0.3, SVG Export Plug-In . SVG Version: 6.00 Build 0)  -->
<svg version="1.1" id="Layer_1" xmlns="http://www.w3.org/2000/svg" xmlns:xlink="http://www.w3.org/1999/xlink" x="0px" y="0px"
	 viewBox="0 0 164.3 44.8" style="enable-background:new 0 0 164.3 44.8;" xml:space="preserve">
<path d="M56,3.1V10h1.5c1,0,1.6-0.5,1.6-1.9V5.1c0-1.5-0.6-1.9-1.6-1.9H56z M62.3,5.3v2.6c0,3.3-1.6,5-4.8,5H56v7.6h-3.2V0.2h4.7
	C60.7,0.2,62.3,2,62.3,5.3"/>
<polygon points="70.6,0.2 70.6,9 67,9 67,0.2 63.8,0.2 63.8,20.6 67,20.6 67,11.9 70.6,11.9 70.6,20.6 73.9,20.6 73.9,0.2 "/>
<path d="M79.4,3.1v6.3h1.3c1.2,0,1.9-0.5,1.9-2.2v-2c0-1.5-0.5-2.1-1.6-2.1H79.4z M82.9,20.6c-0.2-0.5-0.3-0.8-0.3-2.5v-3.2
	c0-1.9-0.6-2.6-2.1-2.6h-1.1v8.3h-3.2V0.2H81c3.3,0,4.7,1.5,4.7,4.7v1.6c0,2.1-0.7,3.5-2.1,4.1c1.6,0.7,2.1,2.2,2.1,4.3v3.1
	c0,1,0,1.7,0.3,2.5H82.9z"/>
<path d="M92.5,3.8L94,14.1h-3.1L92.5,3.8z M90.3,0.2L87,20.6H90l0.6-3.7h3.9l0.6,3.7h3.2L95,0.2H90.3z"/>
<path d="M103.5,0c3.1,0,4.7,1.9,4.7,5.1v0.6h-3V4.9c0-1.5-0.6-2-1.6-2c-1,0-1.6,0.6-1.6,2c0,4.2,6.2,5,6.2,10.8
	c0,3.3-1.6,5.1-4.8,5.1c-3.1,0-4.8-1.9-4.8-5.1v-1.2h3v1.5c0,1.5,0.6,2,1.7,2c1,0,1.7-0.5,1.7-2c0-4.2-6.2-5-6.2-10.8
	C98.8,1.9,100.4,0,103.5,0"/>
<polygon points="110.1,0.2 110.1,20.6 118.8,20.6 118.8,17.7 113.3,17.7 113.3,11.7 117.6,11.7 117.6,8.8 113.3,8.8 113.3,3.1 
	118.8,3.1 118.8,0.2 "/>
<path d="M124,3.1v14.5h1.8c1,0,1.6-0.5,1.6-2V5.1c0-1.5-0.6-2-1.6-2H124z M120.8,0.2h5.1c3.2,0,4.8,1.8,4.8,5v10.3
	c0,3.3-1.6,5-4.8,5h-5.1V0.2z"/>
<path d="M56,27.4v14.5h1.8c1,0,1.6-0.5,1.6-2V29.3c0-1.5-0.6-2-1.6-2H56z M52.8,24.5h5.1c3.2,0,4.8,1.8,4.8,5v10.3
	c0,3.3-1.6,5-4.8,5h-5.1V24.5z"/>
<rect x="64.7" y="24.5" width="3.2" height="20.4"/>
<polygon points="73.4,33.5 77.5,33.5 77.5,36.4 73.4,36.4 73.4,44.8 70.2,44.8 70.2,24.5 78.7,24.5 78.7,27.4 73.4,27.4 "/>
<polygon points="83.4,33.5 87.5,33.5 87.5,36.4 83.4,36.4 83.4,44.8 80.2,44.8 80.2,24.5 88.7,24.5 88.7,27.4 83.4,27.4 "/>
<polygon points="93.4,33 97.8,33 97.8,35.9 93.4,35.9 93.4,41.9 98.9,41.9 98.9,44.8 90.2,44.8 90.2,24.5 98.9,24.5 98.9,27.4 
	93.4,27.4 "/>
<path d="M104.1,27.4v6.2h1.2c1.2,0,1.9-0.5,1.9-2.2v-2c0-1.5-0.5-2.1-1.6-2.1H104.1z M107.6,44.8c-0.2-0.5-0.3-0.8-0.3-2.5v-3.2
	c0-1.9-0.6-2.6-2.1-2.6h-1.1v8.3h-3.2V24.5h4.8c3.3,0,4.7,1.5,4.7,4.7v1.6c0,2.1-0.7,3.5-2.1,4.1c1.6,0.7,2.1,2.2,2.1,4.3v3.1
	c0,1,0,1.7,0.3,2.5H107.6z"/>
<polygon points="115.8,33 120.2,33 120.2,35.9 115.8,35.9 115.8,41.9 121.3,41.9 121.3,44.8 112.6,44.8 112.6,24.5 121.3,24.5 
	121.3,27.4 115.8,27.4 "/>
<polygon points="126.1,30.1 126.1,44.8 123.3,44.8 123.3,24.5 127.3,24.5 130.5,36.6 130.5,24.5 133.4,24.5 133.4,44.8 130.1,44.8 
	"/>
<polygon points="134.8,24.5 144.6,24.5 144.6,27.4 141.3,27.4 141.3,44.8 138.1,44.8 138.1,27.4 134.8,27.4 "/>
<polygon points="146,24.5 149.2,24.5 149.2,41.9 154.5,41.9 154.5,44.8 146,44.8 "/>
<polygon points="161.3,24.5 158.8,33.7 156.4,24.5 153,24.5 157.1,38.1 157.1,44.8 160.3,44.8 160.3,38.1 164.3,24.5 "/>
<path d="M0,0.2v44.6h44.6V0.2H0z M13.6,19.8v17.2h-3V15.4h0c0-0.4,0.1-0.9,0.2-1.3c1-3.5,5.2-6.4,9.4-6.4c4.2,0,6.8,2.8,5.9,6.4
	c-1,3.5-5.2,6.4-9.4,6.4C15.5,20.4,14.5,20.2,13.6,19.8z M34,29.7L34,29.7c0,0.4-0.1,0.9-0.2,1.3c-1,3.5-5.2,6.4-9.4,6.4
	c-4.2,0-6.8-2.8-5.9-6.4c1-3.5,5.2-6.4,9.4-6.4c1.1,0,2.2,0.2,3,0.6V8h3V29.7z"/>
</svg>
