<svg width="274" height="44" viewBox="0 0 274 44" fill="none" xmlns="http://www.w3.org/2000/svg">
<path d="M259.817 28.8689C257.007 28.8689 254.687 26.8845 254.687 22.6186C254.687 18.3527 257.002 16.3235 259.817 16.3235C262.633 16.3235 264.947 18.3584 264.947 22.6186C264.947 26.8789 262.667 28.8689 259.817 28.8689ZM246.571 43.1071H255.041V32.0192H255.138C255.971 33.1585 257.075 34.08 258.354 34.7034C259.633 35.3267 261.047 35.633 262.474 35.5956C268.926 35.5956 273.509 30.7523 273.509 22.613C273.509 14.4737 268.732 9.68088 262.525 9.68088C261.034 9.62461 259.554 9.95306 258.232 10.6336C256.91 11.3141 255.792 12.323 254.99 13.56H254.893V10.3704H246.571V43.1071ZM227.601 35.5956C231.939 35.5956 234.002 32.4957 234.891 31.0438H234.988V34.8669H243.265V10.3704H234.794V23.5884C234.794 26.8845 233.267 28.2859 231.243 28.2859C229.374 28.2859 228.342 27.0302 228.342 24.7544V10.3704H219.872V26.2062C219.872 32.4508 223.292 35.6012 227.601 35.6012V35.5956ZM204.265 28.8184C201.358 28.8184 198.998 26.7836 198.998 22.5233C198.998 18.2631 201.358 16.4188 204.265 16.4188C207.172 16.4188 209.538 18.3584 209.538 22.5233C209.538 26.6883 207.172 28.8184 204.265 28.8184ZM204.265 35.6012C212.393 35.6012 218.059 30.416 218.059 22.5738C218.059 14.7315 212.046 9.68088 204.265 9.68088C196.485 9.68088 190.477 14.7708 190.477 22.5738C190.477 30.3768 196.143 35.5956 204.265 35.5956V35.6012ZM173.656 34.8669H182.03V24.6534C182.03 20.3427 183.74 18.3079 187.889 18.3079H190.334V9.8995H189.992C184.72 9.8995 182.702 13.8234 181.916 15.2753H181.813V10.3704H173.656V34.8669ZM153.854 35.5956C164.291 35.5956 170.846 29.592 170.846 17.6577V15.4995H151.854V22.6186H161.014C160.672 26.4472 158.164 28.7848 153.923 28.7848C148.553 28.7848 146.04 24.6198 146.04 17.837C146.04 11.3962 148.998 7.66286 154.02 7.66286C157.913 7.66286 160.421 9.74815 161.111 12.7079H170.669C169.735 5.52152 163.544 0 153.854 0C143.213 0 136.515 7.65165 136.515 17.8258C136.515 28.8184 142.785 35.6012 153.854 35.6012V35.5956ZM94.0044 28.8689C91.1544 28.8689 88.8744 26.8845 88.8744 22.6186C88.8744 18.3527 91.1544 16.3235 94.0044 16.3235C96.8544 16.3235 99.1344 18.3584 99.1344 22.6186C99.1344 26.8789 96.8544 28.8689 94.0044 28.8689ZM91.0005 35.5507C95.6802 35.5507 98.04 32.8881 98.8779 31.6268H98.9805V34.8725H107.228V0.728729H98.8095V13.3694H98.7069C97.9716 12.3043 95.6574 9.64164 90.9264 9.64164C84.8673 9.64164 80.2902 14.4849 80.2902 22.6186C80.2902 30.7523 85.0155 35.5507 90.9777 35.5507H91.0005ZM65.6184 28.8689C62.7684 28.8689 60.4884 26.8845 60.4884 22.6186C60.4884 18.3527 62.7684 16.3235 65.6184 16.3235C68.4684 16.3235 70.7883 18.3584 70.7883 22.6186C70.7883 26.8789 68.4741 28.8689 65.6184 28.8689ZM62.6145 35.5507C67.2942 35.5507 69.654 32.8881 70.4919 31.6268H70.5888V34.8725H78.8652V0.728729H70.4463V13.3694H70.3437C69.6084 12.3043 67.2942 9.64164 62.5632 9.64164C56.5041 9.64164 51.927 14.4849 51.927 22.6186C51.927 30.7523 56.6523 35.5507 62.6145 35.5507ZM8.9148 27.2208V20.8304H13.1499C15.3672 20.8304 16.8435 22.0861 16.8435 24.0761C16.8435 26.0661 15.3444 27.2208 13.1499 27.2208H8.9148ZM8.9148 14.4849V8.38038H12.7566C14.8257 8.38038 16.302 9.5015 16.302 11.385C16.302 13.2685 14.8257 14.4849 12.7566 14.4849H8.9148ZM20.1438 17.4839V17.3381C23.5638 15.9367 25.365 13.2741 25.365 9.97798C25.365 4.50691 20.5884 0.728729 13.2981 0.728729H0V34.8725H13.9878C21.5232 34.8725 26.2998 30.9037 26.2998 25.427C26.2998 21.6545 24.1851 18.8404 20.1438 17.4839Z" fill="black"/>
<path d="M27.1875 24.6652V10.4102H35.2929V24.2448C35.2929 27.2101 36.6438 28.264 38.9124 28.264C41.181 28.264 42.5319 27.2101 42.5319 24.2448V10.4102H50.5917V24.6652C50.5917 31.846 45.4617 34.873 38.9238 34.873C32.3859 34.873 27.1875 31.846 27.1875 24.6652Z" fill="black"/>
<path d="M108.558 21.7121C108.558 14.2398 113.688 9.03223 122.004 9.03223C131.483 9.03223 136.226 15.5908 135.291 23.7357H117.051C117.205 27.015 119.171 28.9433 121.936 28.9433C124.484 28.9433 125.892 27.6933 126.496 25.6192H135.091C133.997 30.8268 129.676 34.8741 121.981 34.8741C113.431 34.8741 108.535 29.6216 108.535 21.7121H108.558ZM126.359 18.9093C126.251 16.0673 124.427 14.4753 121.873 14.4753C119.479 14.4753 117.809 15.8262 117.444 18.9093H126.359Z" fill="black"/>
</svg>
