<?xml version="1.0" standalone="no"?>
<!DOCTYPE svg PUBLIC "-//W3C//DTD SVG 20010904//EN"
 "http://www.w3.org/TR/2001/REC-SVG-20010904/DTD/svg10.dtd">
<svg version="1.0" xmlns="http://www.w3.org/2000/svg"
 width="700.000000pt" height="700.000000pt" viewBox="0 0 700.000000 700.000000"
 preserveAspectRatio="xMidYMid meet">
<metadata>
Created by potrace 1.14, written by Peter Selinger 2001-2017
</metadata>
<g transform="translate(0.000000,700.000000) scale(0.100000,-0.100000)"
fill="#000000" stroke="none">
<path d="M3367 6824 c-1 -1 -48 -5 -105 -8 -110 -7 -206 -18 -344 -41 -276
-46 -621 -161 -899 -299 -216 -108 -500 -292 -653 -426 -107 -93 -141 -124
-221 -206 -260 -263 -433 -500 -602 -823 -43 -82 -131 -276 -139 -306 -1 -5
-17 -48 -34 -95 -43 -115 -108 -343 -124 -435 -3 -16 -10 -55 -16 -85 -55
-281 -69 -700 -34 -970 48 -378 136 -700 265 -978 22 -46 39 -86 39 -89 0 -16
155 -287 225 -393 147 -223 380 -492 571 -660 279 -244 603 -446 939 -585 153
-63 420 -148 538 -170 12 -3 56 -11 97 -19 41 -9 93 -18 115 -21 45 -5 111
-16 137 -21 119 -22 635 -21 743 1 11 2 45 7 76 10 31 3 67 8 80 10 13 3 38 7
54 10 17 3 53 10 80 15 28 6 60 12 72 15 13 2 73 17 135 34 413 110 809 305
1153 566 50 38 92 71 95 74 3 3 39 35 80 71 184 159 380 376 523 580 37 52 72
100 77 107 6 7 10 15 10 18 0 4 15 30 34 58 71 107 166 293 241 472 36 86 120
328 130 375 2 8 15 62 29 120 14 58 28 119 31 135 2 17 7 39 9 50 2 11 9 61
16 110 6 50 14 101 16 115 22 134 22 598 0 715 -2 11 -7 47 -11 80 -4 32 -8
66 -10 75 -1 8 -6 35 -10 60 -4 25 -9 54 -11 65 -2 11 -7 34 -10 50 -13 75
-59 240 -104 376 -275 822 -873 1514 -1653 1908 -98 50 -297 135 -387 166 -3
1 -12 4 -20 8 -80 33 -413 118 -520 133 -30 4 -57 8 -60 9 -3 1 -32 5 -65 9
-32 4 -67 10 -77 11 -56 11 -491 27 -501 19z"/>
</g>
</svg>
